<?xml version="1.0" encoding="UTF-8" standalone="no"?>
<svg
   width="64"
   height="64"
   viewBox="0 0 64 64"
   version="1.1"
   id="svg8"
   inkscape:version="1.2 (1:1.2.1+202207142221+cd75a1ee6d)"
   sodipodi:docname="flatnotes.svg"
   xml:space="preserve"
   xmlns:inkscape="http://www.inkscape.org/namespaces/inkscape"
   xmlns:sodipodi="http://sodipodi.sourceforge.net/DTD/sodipodi-0.dtd"
   xmlns="http://www.w3.org/2000/svg"
   xmlns:svg="http://www.w3.org/2000/svg"
   xmlns:rdf="http://www.w3.org/1999/02/22-rdf-syntax-ns#"
   xmlns:cc="http://creativecommons.org/ns#"
   xmlns:dc="http://purl.org/dc/elements/1.1/"><defs
     id="defs2" /><sodipodi:namedview
     id="base"
     pagecolor="#ffffff"
     bordercolor="#666666"
     borderopacity="1.0"
     inkscape:pageopacity="0.0"
     inkscape:pageshadow="2"
     inkscape:zoom="7.316179"
     inkscape:cx="13.736679"
     inkscape:cy="13.189945"
     inkscape:document-units="px"
     inkscape:current-layer="layer1"
     inkscape:document-rotation="0"
     showgrid="false"
     units="px"
     width="250mm"
     inkscape:window-width="2560"
     inkscape:window-height="1376"
     inkscape:window-x="0"
     inkscape:window-y="0"
     inkscape:window-maximized="1"
     inkscape:snap-bbox="true"
     inkscape:snap-bbox-midpoints="true"
     inkscape:snap-object-midpoints="true"
     inkscape:snap-intersection-paths="true"
     inkscape:object-paths="true"
     inkscape:showpageshadow="2"
     inkscape:pagecheckerboard="0"
     inkscape:deskcolor="#d1d1d1" /><metadata
     id="metadata5"><rdf:RDF><cc:Work
         rdf:about=""><dc:format>image/svg+xml</dc:format><dc:type
           rdf:resource="http://purl.org/dc/dcmitype/StillImage" /><dc:title /></cc:Work></rdf:RDF></metadata><g
     inkscape:label="Layer 1"
     inkscape:groupmode="layer"
     id="layer1"><g
       id="path850-3-5"><path
         style="color:#000000;fill:#040000;stroke-width:3;-inkscape-stroke:none"
         d="m 27.788652,11.947548 v 40"
         id="path1086" /><path
         id="path1088"
         style="color:#000000;fill:#000000"
         d="M 26.289062 11.947266 L 26.289062 51.947266 L 29.289062 51.947266 A 8.3798646 14.844435 38.029958 0 0 39.507812 41.583984 A 8.3798646 14.844435 38.029958 0 0 36.984375 27.628906 A 8.3798646 14.844435 38.029958 0 0 35.734375 27.576172 A 8.3798646 14.844435 38.029958 0 0 29.289062 30.015625 L 29.289062 11.947266 L 26.289062 11.947266 z M 33.138672 31.830078 A 6.3882752 11.358358 37.251868 0 1 34.085938 31.869141 A 6.3882752 11.358358 37.251868 0 1 36 42.605469 A 6.3882752 11.358358 37.251868 0 1 29.289062 50.013672 L 29.289062 33.066406 A 6.3882752 11.358358 37.251868 0 1 33.138672 31.830078 z " /></g><path
       id="path915"
       style="fill:none;stroke:#ffffff;stroke-width:4;stroke-miterlimit:4;stroke-dasharray:none;stroke-opacity:1"
       d="m 5,1 h 54 c 2.216,0 4,1.784 4,4 v 54 c 0,2.216 -1.784,4 -4,4 H 5 C 2.784,63 1,61.216 1,59 V 5 C 1,2.784 2.784,1 5,1 Z" /><path
       id="rect833"
       style="fill:none;stroke:#000000;stroke-width:2;stroke-miterlimit:4;stroke-dasharray:none;stroke-opacity:1"
       d="m 5,1 h 54 c 2.216,0 4,1.784 4,4 v 54 c 0,2.216 -1.784,4 -4,4 H 5 C 2.784,63 1,61.216 1,59 V 5 C 1,2.784 2.784,1 5,1 Z" /></g></svg>
